<svg xmlns="http://www.w3.org/2000/svg" width="36" height="36" viewBox="0 0 36 36">
  <path fill="#FEFEFE" d="M18,0 C8.0595,0 0,8.0595 0,18 C0,27.9405 8.0595,36 18,36 C27.9405,36 36,27.9405 36,18 C36,8.0595 27.9405,0 18,0 Z M15,24 L12,24 L12,15 L15,15 L15,24 Z M13.5,13.6635 C12.5895,13.6635 11.85,12.9195 11.85,12 C11.85,11.082 12.588,10.3365 13.5,10.3365 C14.412,10.3365 15.15,11.082 15.15,12 C15.15,12.9195 14.4105,13.6635 13.5,13.6635 Z M25.5,24 L22.503,24 L22.503,19.7085 C22.503,16.887 19.5,17.1255 19.5,19.7085 L19.5,24 L16.5,24 L16.5,15 L19.5,15 L19.5,16.6395 C20.808,14.2155 25.5,14.0355 25.5,18.9615 L25.5,24 Z"/>
</svg>
